<?xml version="1.0" encoding="UTF-8" standalone="no"?><!DOCTYPE svg PUBLIC "-//W3C//DTD SVG 1.1//EN" "http://www.w3.org/Graphics/SVG/1.1/DTD/svg11.dtd"><svg width="100%" height="100%" viewBox="0 0 1780 355" version="1.1" xmlns="http://www.w3.org/2000/svg" xmlns:xlink="http://www.w3.org/1999/xlink" xml:space="preserve" xmlns:serif="http://www.serif.com/" style="fill-rule:evenodd;clip-rule:evenodd;stroke-linejoin:round;stroke-miterlimit:2;"><g><text x="451.616px" y="233.777px" style="font-family:'ArialRoundedMTBold', 'Arial Rounded MT Bold', sans-serif;font-size:150px;fill:#2f3640;">T<tspan x="543.388px 633.989px " y="233.777px 233.777px ">he</tspan>De<tspan x="919.56px 1000.86px " y="233.777px 233.777px ">v&apos;</tspan>sUniv<tspan x="1442.73px 1531.87px 1593.83px 1675.13px " y="233.777px 233.777px 233.777px 233.777px ">erse</tspan></text><g><path d="M348.045,42.236c-18.658,-0.504 -83.904,35.926 -154.73,88.007c-70.826,52.081 -125.049,103.502 -130.129,121.461l284.859,-209.468Z" style="fill:#2f3640;"/><path d="M27.073,62.591l76.795,-45.91l66.778,-4.174l114.358,-0.835l63.041,10.852l14.223,7.799l-53.891,31.433l-52.588,32.554l-62.474,45.911l-59.397,48.414l-29.215,21.703l-9.133,10.851l-14.694,11.687l-28.761,18.828l-11.686,28.751l15.859,22.538l24.588,8.721l25.496,0l44.241,-20.407l72.621,-39.603l25.042,-27.176l42.572,-30.885l45.075,-35.893l26.345,-27.507l52.954,-34.263l13.356,34.263l-5.008,64.235l-7.513,57.226l-9.182,42.107l-44.607,44.241l-61.404,10.016l-71.945,4.174l-81.645,-0.835l-66.398,-5.008l-47.125,-19.991l-30.05,-49.292l-5.844,-116.027l6.678,-45.91l22.538,-52.588Z" style="fill:none;"/><clipPath id="_clip1"><path d="M27.073,62.591l76.795,-45.91l66.778,-4.174l114.358,-0.835l63.041,10.852l14.223,7.799l-53.891,31.433l-52.588,32.554l-62.474,45.911l-59.397,48.414l-29.215,21.703l-9.133,10.851l-14.694,11.687l-28.761,18.828l-11.686,28.751l15.859,22.538l24.588,8.721l25.496,0l44.241,-20.407l72.621,-39.603l25.042,-27.176l42.572,-30.885l45.075,-35.893l26.345,-27.507l52.954,-34.263l13.356,34.263l-5.008,64.235l-7.513,57.226l-9.182,42.107l-44.607,44.241l-61.404,10.016l-71.945,4.174l-81.645,-0.835l-66.398,-5.008l-47.125,-19.991l-30.05,-49.292l-5.844,-116.027l6.678,-45.91l22.538,-52.588Z"/></clipPath><g clip-path="url(#_clip1)"><path d="M316.386,58.934c24.945,18.314 43.649,44.115 53.282,73.553c6.974,21.312 9.193,44.531 5.584,68.196c-12.317,80.764 -87.887,136.333 -168.651,124.016c-80.763,-12.318 -136.333,-87.888 -124.016,-168.651c12.318,-80.764 87.888,-136.333 168.652,-124.016c24.411,3.723 46.52,13.225 65.149,26.902m-67.365,-12.377c21.051,3.21 40.201,11.191 56.52,22.675c24.839,17.482 43.117,43.081 51.547,72.328c5.171,17.94 6.637,37.254 3.64,56.908c-11.095,72.747 -79.164,122.801 -151.912,111.707c-72.747,-11.095 -122.801,-79.165 -111.706,-151.912c11.095,-72.747 79.164,-122.801 151.911,-111.706Z" style="fill:#2f3640;"/></g><path d="M109.836,314.978c18.657,0.504 83.903,-35.927 154.729,-88.008c70.826,-52.081 125.049,-103.501 130.131,-121.46l-284.86,209.468Z" style="fill:#2f3640;"/><path d="M451.616,23.109c-63.925,26.221 -150.183,72.775 -233.994,134.405c-83.812,61.63 -153.962,130.089 -198.048,183.292c68.128,-40.121 146.976,-90 224.649,-147.116c77.673,-57.116 148.789,-117.511 207.393,-170.581Z" style="fill:#2f3640;"/></g></g></svg>