<?xml version="1.0" encoding="UTF-8" standalone="no"?><!DOCTYPE svg PUBLIC "-//W3C//DTD SVG 1.1//EN" "http://www.w3.org/Graphics/SVG/1.1/DTD/svg11.dtd"><svg width="100%" height="100%" viewBox="0 0 1760 341" version="1.1" xmlns="http://www.w3.org/2000/svg" xmlns:xlink="http://www.w3.org/1999/xlink" xml:space="preserve" xmlns:serif="http://www.serif.com/" style="fill-rule:evenodd;clip-rule:evenodd;stroke-linejoin:round;stroke-miterlimit:2;"><g><text x="453.759px" y="222.105px" style="font-family:'ArialRoundedMTBold', 'Arial Rounded MT Bold', sans-serif;font-size:150px;fill:#fff;">T<tspan x="545.531px 636.132px " y="222.105px 222.105px ">he</tspan>De<tspan x="921.703px 1003px " y="222.105px 222.105px ">v&apos;</tspan>sUniv<tspan x="1444.87px 1534.01px 1595.97px 1677.27px " y="222.105px 222.105px 222.105px 222.105px ">erse</tspan></text><g><path d="M350.187,30.564c-18.657,-0.504 -83.903,35.926 -154.729,88.007c-70.826,52.081 -125.049,103.501 -130.13,121.461l284.859,-209.468Z" style="fill:#fff;"/><path d="M29.216,50.919l76.795,-45.911l66.778,-4.173l114.358,-0.835l63.04,10.851l14.223,7.799l-53.891,31.434l-52.588,32.554l-62.473,45.91l-59.397,48.415l-29.216,21.703l-9.132,10.851l-14.694,11.686l-28.762,18.829l-11.686,28.751l15.86,22.538l24.588,8.721l25.496,0l44.241,-20.408l72.621,-39.602l25.042,-27.176l42.571,-30.885l45.076,-35.893l26.344,-27.507l52.955,-34.263l13.356,34.263l-5.009,64.235l-7.512,57.226l-9.182,42.107l-44.608,44.24l-61.403,10.017l-71.946,4.174l-81.644,-0.835l-66.398,-5.008l-47.126,-19.991l-30.05,-49.292l-5.843,-116.027l6.678,-45.911l22.538,-52.587Z" style="fill:none;"/><clipPath id="_clip1"><path d="M29.216,50.919l76.795,-45.911l66.778,-4.173l114.358,-0.835l63.04,10.851l14.223,7.799l-53.891,31.434l-52.588,32.554l-62.473,45.91l-59.397,48.415l-29.216,21.703l-9.132,10.851l-14.694,11.686l-28.762,18.829l-11.686,28.751l15.86,22.538l24.588,8.721l25.496,0l44.241,-20.408l72.621,-39.602l25.042,-27.176l42.571,-30.885l45.076,-35.893l26.344,-27.507l52.955,-34.263l13.356,34.263l-5.009,64.235l-7.512,57.226l-9.182,42.107l-44.608,44.24l-61.403,10.017l-71.946,4.174l-81.644,-0.835l-66.398,-5.008l-47.126,-19.991l-30.05,-49.292l-5.843,-116.027l6.678,-45.911l22.538,-52.587Z"/></clipPath><g clip-path="url(#_clip1)"><path d="M318.529,47.262c24.945,18.314 43.649,44.115 53.282,73.553c6.974,21.312 9.193,44.531 5.584,68.196c-12.318,80.764 -87.888,136.333 -168.651,124.016c-80.764,-12.318 -136.333,-87.888 -124.016,-168.651c12.318,-80.764 87.888,-136.333 168.651,-124.016c24.411,3.723 46.521,13.225 65.15,26.902m-67.365,-12.378c21.05,3.211 40.201,11.192 56.519,22.676c24.84,17.482 43.118,43.08 51.548,72.328c5.171,17.94 6.637,37.253 3.639,56.908c-11.094,72.747 -79.164,122.801 -151.911,111.706c-72.747,-11.095 -122.801,-79.164 -111.707,-151.911c11.095,-72.748 79.165,-122.802 151.912,-111.707Z" style="fill:#fff;"/></g><path d="M111.979,303.306c18.657,0.503 83.902,-35.927 154.728,-88.008c70.826,-52.081 125.05,-103.501 130.131,-121.46l-284.859,209.468Z" style="fill:#fff;"/><path d="M453.759,11.436c-63.926,26.222 -150.183,72.776 -233.995,134.406c-83.811,61.63 -153.962,130.089 -198.047,183.291c68.128,-40.12 146.975,-90 224.648,-147.116c77.673,-57.116 148.789,-117.51 207.394,-170.581Z" style="fill:#fff;"/></g></g></svg>